<svg width="23" height="23" viewBox="0 0 23 23" fill="none" xmlns="http://www.w3.org/2000/svg">
<path d="M11.4969 7.36979C9.38527 7.36979 7.66201 9.0267 7.66201 11.057C7.66201 13.0874 9.38527 14.7443 11.4969 14.7443C13.6085 14.7443 15.3318 13.0874 15.3318 11.057C15.3318 9.0267 13.6085 7.36979 11.4969 7.36979ZM22.9987 11.057C22.9987 9.53013 23.0131 8.01706 22.9239 6.49293C22.8347 4.7226 22.4147 3.15144 21.0683 1.85689C19.7191 0.55958 18.0879 0.158492 16.2467 0.0727421C14.6586 -0.0130079 13.085 0.000822769 11.4998 0.000822769C9.91174 0.000822769 8.33808 -0.0130079 6.75292 0.0727421C4.91171 0.158492 3.27763 0.562347 1.93125 1.85689C0.581988 3.15421 0.164838 4.7226 0.0756548 6.49293C-0.0135288 8.01983 0.000855714 9.5329 0.000855714 11.057C0.000855714 12.5812 -0.0135288 14.097 0.0756548 15.6211C0.164838 17.3915 0.584864 18.9626 1.93125 20.2572C3.28051 21.5545 4.91171 21.9556 6.75292 22.0413C8.34096 22.1271 9.91462 22.1133 11.4998 22.1133C13.0878 22.1133 14.6615 22.1271 16.2467 22.0413C18.0879 21.9556 19.7219 21.5517 21.0683 20.2572C22.4176 18.9599 22.8347 17.3915 22.9239 15.6211C23.016 14.097 22.9987 12.5839 22.9987 11.057ZM11.4969 16.7304C8.23164 16.7304 5.59641 14.1966 5.59641 11.057C5.59641 7.91748 8.23164 5.38371 11.4969 5.38371C14.7622 5.38371 17.3974 7.91748 17.3974 11.057C17.3974 14.1966 14.7622 16.7304 11.4969 16.7304ZM17.6391 6.47633C16.8767 6.47633 16.261 5.88438 16.261 5.15135C16.261 4.41833 16.8767 3.82638 17.6391 3.82638C18.4014 3.82638 19.0171 4.41833 19.0171 5.15135C19.0173 5.32541 18.9818 5.49781 18.9127 5.65866C18.8435 5.81951 18.742 5.96566 18.614 6.08874C18.486 6.21182 18.334 6.30941 18.1667 6.37592C17.9994 6.44243 17.8201 6.47655 17.6391 6.47633Z" fill="#415D76"/>
</svg>
