<svg width="30" height="23" viewBox="0 0 30 23" fill="none" xmlns="http://www.w3.org/2000/svg">
<path d="M23.769 0H6.231C2.79 0 0 2.90725 0 6.49076V15.6233C0 19.21 2.79 22.1141 6.231 22.1141H23.769C27.21 22.1141 30 19.2068 30 15.6233V6.49076C30 2.90409 27.21 0 23.769 0ZM19.557 11.5026L11.352 15.5791C11.3018 15.6041 11.2464 15.6153 11.191 15.6118C11.1356 15.6082 11.0819 15.59 11.035 15.5588C10.988 15.5276 10.9493 15.4845 10.9224 15.4333C10.8955 15.3822 10.8812 15.3247 10.881 15.2662V6.86048C10.8815 6.80125 10.8964 6.74314 10.9242 6.69166C10.952 6.64017 10.9918 6.59703 11.0399 6.56632C11.088 6.53562 11.1427 6.51836 11.1989 6.5162C11.2551 6.51403 11.3109 6.52703 11.361 6.55396L19.563 10.8832C19.6169 10.9129 19.662 10.9577 19.6933 11.0127C19.7245 11.0677 19.7408 11.1308 19.7401 11.1949C19.7395 11.259 19.7221 11.3216 19.6898 11.3759C19.6574 11.4302 19.6115 11.4741 19.557 11.5026Z" fill="#415D76"/>
</svg>
